<mxfile host="drawio-plugin" modified="2022-02-08T18:58:00.463Z" agent="5.0 (X11; Linux x86_64) AppleWebKit/537.36 (KHTML, like Gecko) Chrome/89.0.4389.114 Safari/537.36" version="15.5.4" etag="gZKOF5R-HUNN-KHk2JD3" type="embed"><diagram id="c28QnHroAq6EwUY4SsP_" name="Page-1"><mxGraphModel dx="747" dy="523" grid="1" gridSize="10" guides="1" tooltips="1" connect="1" arrows="1" fold="1" page="1" pageScale="1" pageWidth="2339" pageHeight="3300" math="0" shadow="0"><root><mxCell id="0"/><mxCell id="1" parent="0"/><mxCell id="hoCRfOwyR8ru-IddkG8W-19" value="Branch" style="swimlane;fontStyle=0;childLayout=stackLayout;horizontal=1;startSize=26;horizontalStack=0;resizeParent=1;resizeParentMax=0;resizeLast=0;collapsible=1;marginBottom=0;align=center;fontSize=14;" parent="1" vertex="1"><mxGeometry x="1270" y="60" width="160" height="86" as="geometry"/></mxCell><mxCell id="QZWZNDZkbE295jT6XIFR-11" value="&lt;u&gt;branch_id&lt;/u&gt;" style="text;html=1;resizable=0;autosize=1;align=left;verticalAlign=middle;points=[];fillColor=none;strokeColor=none;rounded=0;" parent="hoCRfOwyR8ru-IddkG8W-19" vertex="1"><mxGeometry y="26" width="160" height="20" as="geometry"/></mxCell><mxCell id="QZWZNDZkbE295jT6XIFR-10" value="city" style="text;html=1;resizable=0;autosize=1;align=left;verticalAlign=middle;points=[];fillColor=none;strokeColor=none;rounded=0;" parent="hoCRfOwyR8ru-IddkG8W-19" vertex="1"><mxGeometry y="46" width="160" height="20" as="geometry"/></mxCell><mxCell id="QZWZNDZkbE295jT6XIFR-12" value="branchM_id" style="text;html=1;resizable=0;autosize=1;align=left;verticalAlign=middle;points=[];fillColor=none;strokeColor=none;rounded=0;" parent="hoCRfOwyR8ru-IddkG8W-19" vertex="1"><mxGeometry y="66" width="160" height="20" as="geometry"/></mxCell><mxCell id="hoCRfOwyR8ru-IddkG8W-27" value="Appointment" style="swimlane;fontStyle=0;childLayout=stackLayout;horizontal=1;startSize=26;horizontalStack=0;resizeParent=1;resizeParentMax=0;resizeLast=0;collapsible=1;marginBottom=0;align=center;fontSize=14;swimlaneFillColor=none;" parent="1" vertex="1"><mxGeometry x="970" y="150" width="160" height="206" as="geometry"/></mxCell><mxCell id="hoCRfOwyR8ru-IddkG8W-126" value="&lt;u&gt;appointment_id&lt;/u&gt;" style="text;html=1;resizable=0;autosize=1;align=left;verticalAlign=middle;points=[];fillColor=none;strokeColor=none;rounded=0;" parent="hoCRfOwyR8ru-IddkG8W-27" vertex="1"><mxGeometry y="26" width="160" height="20" as="geometry"/></mxCell><mxCell id="hoCRfOwyR8ru-IddkG8W-134" value="&lt;u&gt;patient_id&lt;/u&gt;" style="text;html=1;resizable=0;autosize=1;align=left;verticalAlign=middle;points=[];fillColor=none;strokeColor=none;rounded=0;" parent="hoCRfOwyR8ru-IddkG8W-27" vertex="1"><mxGeometry y="46" width="160" height="20" as="geometry"/></mxCell><mxCell id="hoCRfOwyR8ru-IddkG8W-135" value="&lt;u&gt;employee_id&lt;/u&gt;" style="text;html=1;resizable=0;autosize=1;align=left;verticalAlign=middle;points=[];fillColor=none;strokeColor=none;rounded=0;" parent="hoCRfOwyR8ru-IddkG8W-27" vertex="1"><mxGeometry y="66" width="160" height="20" as="geometry"/></mxCell><mxCell id="hoCRfOwyR8ru-IddkG8W-144" value="date" style="text;html=1;resizable=0;autosize=1;align=left;verticalAlign=middle;points=[];fillColor=none;strokeColor=none;rounded=0;" parent="hoCRfOwyR8ru-IddkG8W-27" vertex="1"><mxGeometry y="86" width="160" height="20" as="geometry"/></mxCell><mxCell id="hoCRfOwyR8ru-IddkG8W-145" value="start_time" style="text;html=1;resizable=0;autosize=1;align=left;verticalAlign=middle;points=[];fillColor=none;strokeColor=none;rounded=0;" parent="hoCRfOwyR8ru-IddkG8W-27" vertex="1"><mxGeometry y="106" width="160" height="20" as="geometry"/></mxCell><mxCell id="QZWZNDZkbE295jT6XIFR-24" value="end_time" style="text;html=1;resizable=0;autosize=1;align=left;verticalAlign=middle;points=[];fillColor=none;strokeColor=none;rounded=0;" parent="hoCRfOwyR8ru-IddkG8W-27" vertex="1"><mxGeometry y="126" width="160" height="20" as="geometry"/></mxCell><mxCell id="hoCRfOwyR8ru-IddkG8W-146" value="appointement_type" style="text;html=1;resizable=0;autosize=1;align=left;verticalAlign=middle;points=[];fillColor=none;strokeColor=none;rounded=0;" parent="hoCRfOwyR8ru-IddkG8W-27" vertex="1"><mxGeometry y="146" width="160" height="20" as="geometry"/></mxCell><mxCell id="hoCRfOwyR8ru-IddkG8W-148" value="status" style="text;html=1;resizable=0;autosize=1;align=left;verticalAlign=middle;points=[];fillColor=none;strokeColor=none;rounded=0;" parent="hoCRfOwyR8ru-IddkG8W-27" vertex="1"><mxGeometry y="166" width="160" height="20" as="geometry"/></mxCell><mxCell id="hoCRfOwyR8ru-IddkG8W-149" value="room_assigned" style="text;html=1;resizable=0;autosize=1;align=left;verticalAlign=middle;points=[];fillColor=none;strokeColor=none;rounded=0;" parent="hoCRfOwyR8ru-IddkG8W-27" vertex="1"><mxGeometry y="186" width="160" height="20" as="geometry"/></mxCell><mxCell id="hoCRfOwyR8ru-IddkG8W-31" value="Appointement_Procedure" style="swimlane;fontStyle=0;childLayout=stackLayout;horizontal=1;startSize=26;horizontalStack=0;resizeParent=1;resizeParentMax=0;resizeLast=0;collapsible=1;marginBottom=0;align=center;fontSize=14;" parent="1" vertex="1"><mxGeometry x="850" y="440" width="180" height="316" as="geometry"/></mxCell><mxCell id="QZWZNDZkbE295jT6XIFR-14" value="&lt;u style=&quot;color: rgb(0, 0, 0); font-family: helvetica; font-size: 12px; font-style: normal; font-weight: 400; letter-spacing: normal; text-align: left; text-indent: 0px; text-transform: none; word-spacing: 0px; background-color: rgb(248, 249, 250);&quot;&gt;appointment_id&lt;/u&gt;" style="text;whiteSpace=wrap;html=1;" parent="hoCRfOwyR8ru-IddkG8W-31" vertex="1"><mxGeometry y="26" width="180" height="30" as="geometry"/></mxCell><mxCell id="QZWZNDZkbE295jT6XIFR-15" value="&lt;u&gt;patient_id&lt;/u&gt;" style="text;html=1;resizable=0;autosize=1;align=left;verticalAlign=middle;points=[];fillColor=none;strokeColor=none;rounded=0;" parent="hoCRfOwyR8ru-IddkG8W-31" vertex="1"><mxGeometry y="56" width="180" height="20" as="geometry"/></mxCell><mxCell id="m-NtswQ1vV4Le2KyXVMU-10" value="&lt;u&gt;employee_id&lt;/u&gt;" style="text;html=1;resizable=0;autosize=1;align=left;verticalAlign=middle;points=[];fillColor=none;strokeColor=none;rounded=0;" parent="hoCRfOwyR8ru-IddkG8W-31" vertex="1"><mxGeometry y="76" width="180" height="20" as="geometry"/></mxCell><mxCell id="cwzBD0Sbq_DCRRP-pXD1-22" value="&lt;u&gt;procedure_code&lt;/u&gt;" style="text;html=1;resizable=0;autosize=1;align=left;verticalAlign=middle;points=[];fillColor=none;strokeColor=none;rounded=0;" parent="hoCRfOwyR8ru-IddkG8W-31" vertex="1"><mxGeometry y="96" width="180" height="20" as="geometry"/></mxCell><mxCell id="m-NtswQ1vV4Le2KyXVMU-12" value="procedure_type" style="text;html=1;resizable=0;autosize=1;align=left;verticalAlign=middle;points=[];fillColor=none;strokeColor=none;rounded=0;" parent="hoCRfOwyR8ru-IddkG8W-31" vertex="1"><mxGeometry y="116" width="180" height="20" as="geometry"/></mxCell><mxCell id="m-NtswQ1vV4Le2KyXVMU-11" value="date" style="text;html=1;resizable=0;autosize=1;align=left;verticalAlign=middle;points=[];fillColor=none;strokeColor=none;rounded=0;" parent="hoCRfOwyR8ru-IddkG8W-31" vertex="1"><mxGeometry y="136" width="180" height="20" as="geometry"/></mxCell><mxCell id="QZWZNDZkbE295jT6XIFR-16" value="invoice_id" style="text;html=1;resizable=0;autosize=1;align=left;verticalAlign=middle;points=[];fillColor=none;strokeColor=none;rounded=0;" parent="hoCRfOwyR8ru-IddkG8W-31" vertex="1"><mxGeometry y="156" width="180" height="20" as="geometry"/></mxCell><mxCell id="QZWZNDZkbE295jT6XIFR-20" value="tooth_involved" style="text;html=1;resizable=0;autosize=1;align=left;verticalAlign=middle;points=[];fillColor=none;strokeColor=none;rounded=0;" parent="hoCRfOwyR8ru-IddkG8W-31" vertex="1"><mxGeometry y="176" width="180" height="20" as="geometry"/></mxCell><mxCell id="QZWZNDZkbE295jT6XIFR-21" value="amount_of_procedure" style="text;html=1;resizable=0;autosize=1;align=left;verticalAlign=middle;points=[];fillColor=none;strokeColor=none;rounded=0;" parent="hoCRfOwyR8ru-IddkG8W-31" vertex="1"><mxGeometry y="196" width="180" height="20" as="geometry"/></mxCell><mxCell id="QZWZNDZkbE295jT6XIFR-22" value="patient_charge" style="text;html=1;resizable=0;autosize=1;align=left;verticalAlign=middle;points=[];fillColor=none;strokeColor=none;rounded=0;" parent="hoCRfOwyR8ru-IddkG8W-31" vertex="1"><mxGeometry y="216" width="180" height="20" as="geometry"/></mxCell><mxCell id="QZWZNDZkbE295jT6XIFR-23" value="insurance_charge" style="text;html=1;resizable=0;autosize=1;align=left;verticalAlign=middle;points=[];fillColor=none;strokeColor=none;rounded=0;" parent="hoCRfOwyR8ru-IddkG8W-31" vertex="1"><mxGeometry y="236" width="180" height="20" as="geometry"/></mxCell><mxCell id="QZWZNDZkbE295jT6XIFR-25" value="total_charge" style="text;html=1;resizable=0;autosize=1;align=left;verticalAlign=middle;points=[];fillColor=none;strokeColor=none;rounded=0;" parent="hoCRfOwyR8ru-IddkG8W-31" vertex="1"><mxGeometry y="256" width="180" height="20" as="geometry"/></mxCell><mxCell id="QZWZNDZkbE295jT6XIFR-26" value="insurance_claim_id" style="text;html=1;resizable=0;autosize=1;align=left;verticalAlign=middle;points=[];fillColor=none;strokeColor=none;rounded=0;" parent="hoCRfOwyR8ru-IddkG8W-31" vertex="1"><mxGeometry y="276" width="180" height="20" as="geometry"/></mxCell><mxCell id="QZWZNDZkbE295jT6XIFR-29" value="cancel()" style="text;html=1;resizable=0;autosize=1;align=left;verticalAlign=middle;points=[];fillColor=none;strokeColor=none;rounded=0;" parent="hoCRfOwyR8ru-IddkG8W-31" vertex="1"><mxGeometry y="296" width="180" height="20" as="geometry"/></mxCell><mxCell id="hoCRfOwyR8ru-IddkG8W-37" value="Treatment" style="swimlane;fontStyle=0;childLayout=stackLayout;horizontal=1;startSize=26;horizontalStack=0;resizeParent=1;resizeParentMax=0;resizeLast=0;collapsible=1;marginBottom=0;align=center;fontSize=14;" parent="1" vertex="1"><mxGeometry x="479.99999999999994" y="420" width="160" height="106" as="geometry"/></mxCell><mxCell id="hoCRfOwyR8ru-IddkG8W-150" value="&lt;u&gt;treatment_id&lt;/u&gt;" style="text;html=1;resizable=0;autosize=1;align=left;verticalAlign=middle;points=[];fillColor=none;strokeColor=none;rounded=0;" parent="hoCRfOwyR8ru-IddkG8W-37" vertex="1"><mxGeometry y="26" width="160" height="20" as="geometry"/></mxCell><mxCell id="hoCRfOwyR8ru-IddkG8W-151" value="treatment_type" style="text;html=1;resizable=0;autosize=1;align=left;verticalAlign=middle;points=[];fillColor=none;strokeColor=none;rounded=0;" parent="hoCRfOwyR8ru-IddkG8W-37" vertex="1"><mxGeometry y="46" width="160" height="20" as="geometry"/></mxCell><mxCell id="m-NtswQ1vV4Le2KyXVMU-28" value="appointement_type" style="text;html=1;resizable=0;autosize=1;align=left;verticalAlign=middle;points=[];fillColor=none;strokeColor=none;rounded=0;" parent="hoCRfOwyR8ru-IddkG8W-37" vertex="1"><mxGeometry y="66" width="160" height="20" as="geometry"/></mxCell><mxCell id="hoCRfOwyR8ru-IddkG8W-153" value="treatment_details" style="text;html=1;resizable=0;autosize=1;align=left;verticalAlign=middle;points=[];fillColor=none;strokeColor=none;rounded=0;" parent="hoCRfOwyR8ru-IddkG8W-37" vertex="1"><mxGeometry y="86" width="160" height="20" as="geometry"/></mxCell><mxCell id="hoCRfOwyR8ru-IddkG8W-41" value="Fee_Charge" style="swimlane;fontStyle=0;childLayout=stackLayout;horizontal=1;startSize=26;horizontalStack=0;resizeParent=1;resizeParentMax=0;resizeLast=0;collapsible=1;marginBottom=0;align=center;fontSize=14;" parent="1" vertex="1"><mxGeometry x="510" y="570" width="160" height="106" as="geometry"/></mxCell><mxCell id="QZWZNDZkbE295jT6XIFR-1" value="&lt;u&gt;fee_id&lt;/u&gt;" style="text;html=1;resizable=0;autosize=1;align=left;verticalAlign=middle;points=[];fillColor=none;strokeColor=none;rounded=0;" parent="hoCRfOwyR8ru-IddkG8W-41" vertex="1"><mxGeometry y="26" width="160" height="20" as="geometry"/></mxCell><mxCell id="QZWZNDZkbE295jT6XIFR-2" value="&lt;u&gt;invoice_id&lt;/u&gt;" style="text;html=1;resizable=0;autosize=1;align=left;verticalAlign=middle;points=[];fillColor=none;strokeColor=none;rounded=0;" parent="hoCRfOwyR8ru-IddkG8W-41" vertex="1"><mxGeometry y="46" width="160" height="20" as="geometry"/></mxCell><mxCell id="QZWZNDZkbE295jT6XIFR-3" value="fee_code" style="text;html=1;resizable=0;autosize=1;align=left;verticalAlign=middle;points=[];fillColor=none;strokeColor=none;rounded=0;" parent="hoCRfOwyR8ru-IddkG8W-41" vertex="1"><mxGeometry y="66" width="160" height="20" as="geometry"/></mxCell><mxCell id="QZWZNDZkbE295jT6XIFR-4" value="charge" style="text;html=1;resizable=0;autosize=1;align=left;verticalAlign=middle;points=[];fillColor=none;strokeColor=none;rounded=0;" parent="hoCRfOwyR8ru-IddkG8W-41" vertex="1"><mxGeometry y="86" width="160" height="20" as="geometry"/></mxCell><mxCell id="hoCRfOwyR8ru-IddkG8W-49" value="Employee" style="swimlane;fontStyle=0;childLayout=stackLayout;horizontal=1;startSize=26;horizontalStack=0;resizeParent=1;resizeParentMax=0;resizeLast=0;collapsible=1;marginBottom=0;align=center;fontSize=14;" parent="1" vertex="1"><mxGeometry x="1500" y="475" width="160" height="166" as="geometry"/></mxCell><mxCell id="m-NtswQ1vV4Le2KyXVMU-16" value="&lt;u&gt;employee_id&lt;/u&gt;" style="text;html=1;resizable=0;autosize=1;align=left;verticalAlign=middle;points=[];fillColor=none;strokeColor=none;rounded=0;" parent="hoCRfOwyR8ru-IddkG8W-49" vertex="1"><mxGeometry y="26" width="160" height="20" as="geometry"/></mxCell><mxCell id="hoCRfOwyR8ru-IddkG8W-68" value="&lt;span style=&quot;color: rgb(0 , 0 , 0) ; font-family: &amp;#34;helvetica&amp;#34; ; font-size: 12px ; font-style: normal ; font-weight: 400 ; letter-spacing: normal ; text-align: center ; text-indent: 0px ; text-transform: none ; word-spacing: 0px ; background-color: rgb(248 , 249 , 250) ; display: inline ; float: none&quot;&gt;salary&lt;/span&gt;" style="text;whiteSpace=wrap;html=1;" parent="hoCRfOwyR8ru-IddkG8W-49" vertex="1"><mxGeometry y="46" width="160" height="30" as="geometry"/></mxCell><mxCell id="hoCRfOwyR8ru-IddkG8W-67" value="&lt;span style=&quot;color: rgb(0 , 0 , 0) ; font-family: &amp;#34;helvetica&amp;#34; ; font-size: 12px ; font-style: normal ; font-weight: 400 ; letter-spacing: normal ; text-align: center ; text-indent: 0px ; text-transform: none ; word-spacing: 0px ; background-color: rgb(248 , 249 , 250) ; display: inline ; float: none&quot;&gt;employee_type&lt;/span&gt;" style="text;whiteSpace=wrap;html=1;" parent="hoCRfOwyR8ru-IddkG8W-49" vertex="1"><mxGeometry y="76" width="160" height="30" as="geometry"/></mxCell><mxCell id="hoCRfOwyR8ru-IddkG8W-69" value="&lt;span style=&quot;color: rgb(0 , 0 , 0) ; font-family: &amp;#34;helvetica&amp;#34; ; font-size: 12px ; font-style: normal ; font-weight: 400 ; letter-spacing: normal ; text-align: center ; text-indent: 0px ; text-transform: none ; word-spacing: 0px ; background-color: rgb(248 , 249 , 250) ; display: inline ; float: none&quot;&gt;role&lt;/span&gt;" style="text;whiteSpace=wrap;html=1;" parent="hoCRfOwyR8ru-IddkG8W-49" vertex="1"><mxGeometry y="106" width="160" height="30" as="geometry"/></mxCell><mxCell id="hoCRfOwyR8ru-IddkG8W-70" value="&lt;span style=&quot;color: rgb(0 , 0 , 0) ; font-family: &amp;#34;helvetica&amp;#34; ; font-size: 12px ; font-style: normal ; font-weight: 400 ; letter-spacing: normal ; text-align: center ; text-indent: 0px ; text-transform: none ; word-spacing: 0px ; background-color: rgb(248 , 249 , 250) ; display: inline ; float: none&quot;&gt;gender&lt;/span&gt;" style="text;whiteSpace=wrap;html=1;" parent="hoCRfOwyR8ru-IddkG8W-49" vertex="1"><mxGeometry y="136" width="160" height="30" as="geometry"/></mxCell><mxCell id="hoCRfOwyR8ru-IddkG8W-72" value="Patient" style="swimlane;fontStyle=0;childLayout=stackLayout;horizontal=1;startSize=26;horizontalStack=0;resizeParent=1;resizeParentMax=0;resizeLast=0;collapsible=1;marginBottom=0;align=center;fontSize=14;" parent="1" vertex="1"><mxGeometry y="310" width="160" height="76" as="geometry"/></mxCell><mxCell id="m-NtswQ1vV4Le2KyXVMU-13" value="&lt;u&gt;patient_id&lt;/u&gt;" style="text;html=1;resizable=0;autosize=1;align=left;verticalAlign=middle;points=[];fillColor=none;strokeColor=none;rounded=0;" parent="hoCRfOwyR8ru-IddkG8W-72" vertex="1"><mxGeometry y="26" width="160" height="20" as="geometry"/></mxCell><mxCell id="hoCRfOwyR8ru-IddkG8W-80" value="&lt;span style=&quot;color: rgb(0 , 0 , 0) ; font-family: &amp;#34;helvetica&amp;#34; ; font-size: 12px ; font-style: normal ; font-weight: 400 ; letter-spacing: normal ; text-align: center ; text-indent: 0px ; text-transform: none ; word-spacing: 0px ; background-color: rgb(248 , 249 , 250) ; display: inline ; float: none&quot;&gt;insurance&lt;/span&gt;" style="text;whiteSpace=wrap;html=1;" parent="hoCRfOwyR8ru-IddkG8W-72" vertex="1"><mxGeometry y="46" width="160" height="30" as="geometry"/></mxCell><mxCell id="QZWZNDZkbE295jT6XIFR-49" value="Insurance_Claim" style="swimlane;fontStyle=0;childLayout=stackLayout;horizontal=1;startSize=26;horizontalStack=0;resizeParent=1;resizeParentMax=0;resizeLast=0;collapsible=1;marginBottom=0;align=center;fontSize=14;" parent="1" vertex="1"><mxGeometry x="1230" y="600" width="160" height="46" as="geometry"/></mxCell><mxCell id="QZWZNDZkbE295jT6XIFR-50" value="&lt;u&gt;insurance_claim_id&lt;/u&gt;" style="text;html=1;resizable=0;autosize=1;align=left;verticalAlign=middle;points=[];fillColor=none;strokeColor=none;rounded=0;" parent="QZWZNDZkbE295jT6XIFR-49" vertex="1"><mxGeometry y="26" width="160" height="20" as="geometry"/></mxCell><mxCell id="QZWZNDZkbE295jT6XIFR-54" value="Review" style="swimlane;fontStyle=0;childLayout=stackLayout;horizontal=1;startSize=26;horizontalStack=0;resizeParent=1;resizeParentMax=0;resizeLast=0;collapsible=1;marginBottom=0;align=center;fontSize=14;" parent="1" vertex="1"><mxGeometry x="640" width="160" height="126" as="geometry"/></mxCell><mxCell id="QZWZNDZkbE295jT6XIFR-55" value="&lt;u&gt;review_id&lt;/u&gt;" style="text;html=1;resizable=0;autosize=1;align=left;verticalAlign=middle;points=[];fillColor=none;strokeColor=none;rounded=0;" parent="QZWZNDZkbE295jT6XIFR-54" vertex="1"><mxGeometry y="26" width="160" height="20" as="geometry"/></mxCell><mxCell id="QZWZNDZkbE295jT6XIFR-56" value="professionalism" style="text;html=1;resizable=0;autosize=1;align=left;verticalAlign=middle;points=[];fillColor=none;strokeColor=none;rounded=0;" parent="QZWZNDZkbE295jT6XIFR-54" vertex="1"><mxGeometry y="46" width="160" height="20" as="geometry"/></mxCell><mxCell id="QZWZNDZkbE295jT6XIFR-57" value="communication" style="text;html=1;resizable=0;autosize=1;align=left;verticalAlign=middle;points=[];fillColor=none;strokeColor=none;rounded=0;" parent="QZWZNDZkbE295jT6XIFR-54" vertex="1"><mxGeometry y="66" width="160" height="20" as="geometry"/></mxCell><mxCell id="QZWZNDZkbE295jT6XIFR-58" value="cleanliness" style="text;html=1;resizable=0;autosize=1;align=left;verticalAlign=middle;points=[];fillColor=none;strokeColor=none;rounded=0;" parent="QZWZNDZkbE295jT6XIFR-54" vertex="1"><mxGeometry y="86" width="160" height="20" as="geometry"/></mxCell><mxCell id="QZWZNDZkbE295jT6XIFR-64" value="value" style="text;html=1;resizable=0;autosize=1;align=left;verticalAlign=middle;points=[];fillColor=none;strokeColor=none;rounded=0;" parent="QZWZNDZkbE295jT6XIFR-54" vertex="1"><mxGeometry y="106" width="160" height="20" as="geometry"/></mxCell><mxCell id="QZWZNDZkbE295jT6XIFR-65" value="Payment" style="swimlane;fontStyle=0;childLayout=stackLayout;horizontal=1;startSize=26;horizontalStack=0;resizeParent=1;resizeParentMax=0;resizeLast=0;collapsible=1;marginBottom=0;align=center;fontSize=14;" parent="1" vertex="1"><mxGeometry x="920" y="820" width="160" height="216" as="geometry"/></mxCell><mxCell id="QZWZNDZkbE295jT6XIFR-66" value="&lt;u&gt;invoice_id&lt;/u&gt;" style="text;html=1;resizable=0;autosize=1;align=left;verticalAlign=middle;points=[];fillColor=none;strokeColor=none;rounded=0;" parent="QZWZNDZkbE295jT6XIFR-65" vertex="1"><mxGeometry y="26" width="160" height="20" as="geometry"/></mxCell><mxCell id="QZWZNDZkbE295jT6XIFR-67" value="&lt;u&gt;patient_id&lt;/u&gt;" style="text;html=1;resizable=0;autosize=1;align=left;verticalAlign=middle;points=[];fillColor=none;strokeColor=none;rounded=0;" parent="QZWZNDZkbE295jT6XIFR-65" vertex="1"><mxGeometry y="46" width="160" height="20" as="geometry"/></mxCell><mxCell id="QZWZNDZkbE295jT6XIFR-68" value="appointement_id" style="text;html=1;resizable=0;autosize=1;align=left;verticalAlign=middle;points=[];fillColor=none;strokeColor=none;rounded=0;" parent="QZWZNDZkbE295jT6XIFR-65" vertex="1"><mxGeometry y="66" width="160" height="20" as="geometry"/></mxCell><mxCell id="QZWZNDZkbE295jT6XIFR-71" value="&lt;span style=&quot;color: rgb(0 , 0 , 0) ; font-family: &amp;#34;helvetica&amp;#34; ; font-size: 12px ; font-style: normal ; font-weight: 400 ; letter-spacing: normal ; text-align: left ; text-indent: 0px ; text-transform: none ; word-spacing: 0px ; background-color: rgb(248 , 249 , 250)&quot;&gt;appointment_procedure_id&lt;/span&gt;" style="text;whiteSpace=wrap;html=1;" parent="QZWZNDZkbE295jT6XIFR-65" vertex="1"><mxGeometry y="86" width="160" height="30" as="geometry"/></mxCell><mxCell id="QZWZNDZkbE295jT6XIFR-80" value="patient_charge" style="text;html=1;resizable=0;autosize=1;align=left;verticalAlign=middle;points=[];fillColor=none;strokeColor=none;rounded=0;" parent="QZWZNDZkbE295jT6XIFR-65" vertex="1"><mxGeometry y="116" width="160" height="20" as="geometry"/></mxCell><mxCell id="QZWZNDZkbE295jT6XIFR-84" value="insurance_charge" style="text;html=1;resizable=0;autosize=1;align=left;verticalAlign=middle;points=[];fillColor=none;strokeColor=none;rounded=0;" parent="QZWZNDZkbE295jT6XIFR-65" vertex="1"><mxGeometry y="136" width="160" height="20" as="geometry"/></mxCell><mxCell id="QZWZNDZkbE295jT6XIFR-82" value="total_charge" style="text;html=1;resizable=0;autosize=1;align=left;verticalAlign=middle;points=[];fillColor=none;strokeColor=none;rounded=0;" parent="QZWZNDZkbE295jT6XIFR-65" vertex="1"><mxGeometry y="156" width="160" height="20" as="geometry"/></mxCell><mxCell id="QZWZNDZkbE295jT6XIFR-85" value="insurance_claim_id" style="text;html=1;resizable=0;autosize=1;align=left;verticalAlign=middle;points=[];fillColor=none;strokeColor=none;rounded=0;" parent="QZWZNDZkbE295jT6XIFR-65" vertex="1"><mxGeometry y="176" width="160" height="20" as="geometry"/></mxCell><mxCell id="QZWZNDZkbE295jT6XIFR-88" value="payment_type" style="text;html=1;resizable=0;autosize=1;align=left;verticalAlign=middle;points=[];fillColor=none;strokeColor=none;rounded=0;" parent="QZWZNDZkbE295jT6XIFR-65" vertex="1"><mxGeometry y="196" width="160" height="20" as="geometry"/></mxCell><mxCell id="hoCRfOwyR8ru-IddkG8W-45" value="Invoice" style="swimlane;fontStyle=0;childLayout=stackLayout;horizontal=1;startSize=26;horizontalStack=0;resizeParent=1;resizeParentMax=0;resizeLast=0;collapsible=1;marginBottom=0;align=center;fontSize=14;" parent="1" vertex="1"><mxGeometry x="570" y="800" width="160" height="276" as="geometry"/></mxCell><mxCell id="QZWZNDZkbE295jT6XIFR-17" value="&lt;u&gt;invoice_id&lt;/u&gt;" style="text;html=1;resizable=0;autosize=1;align=left;verticalAlign=middle;points=[];fillColor=none;strokeColor=none;rounded=0;" parent="hoCRfOwyR8ru-IddkG8W-45" vertex="1"><mxGeometry y="26" width="160" height="20" as="geometry"/></mxCell><mxCell id="QZWZNDZkbE295jT6XIFR-31" value="&lt;u&gt;patient_id&lt;/u&gt;" style="text;html=1;resizable=0;autosize=1;align=left;verticalAlign=middle;points=[];fillColor=none;strokeColor=none;rounded=0;" parent="hoCRfOwyR8ru-IddkG8W-45" vertex="1"><mxGeometry y="46" width="160" height="20" as="geometry"/></mxCell><mxCell id="QZWZNDZkbE295jT6XIFR-32" value="date_of_issue" style="text;html=1;resizable=0;autosize=1;align=left;verticalAlign=middle;points=[];fillColor=none;strokeColor=none;rounded=0;" parent="hoCRfOwyR8ru-IddkG8W-45" vertex="1"><mxGeometry y="66" width="160" height="20" as="geometry"/></mxCell><mxCell id="QZWZNDZkbE295jT6XIFR-33" value="contact_info" style="text;html=1;resizable=0;autosize=1;align=left;verticalAlign=middle;points=[];fillColor=none;strokeColor=none;rounded=0;" parent="hoCRfOwyR8ru-IddkG8W-45" vertex="1"><mxGeometry y="86" width="160" height="20" as="geometry"/></mxCell><mxCell id="QZWZNDZkbE295jT6XIFR-42" value="&lt;span style=&quot;color: rgb(0 , 0 , 0) ; font-family: &amp;#34;helvetica&amp;#34; ; font-size: 12px ; font-style: normal ; font-weight: 400 ; letter-spacing: normal ; text-align: center ; text-indent: 0px ; text-transform: none ; word-spacing: 0px ; background-color: rgb(248 , 249 , 250) ; display: inline ; float: none&quot;&gt;&lt;span style=&quot;white-space: pre&quot;&gt;&#9;&lt;/span&gt;email&lt;/span&gt;" style="text;whiteSpace=wrap;html=1;" parent="hoCRfOwyR8ru-IddkG8W-45" vertex="1"><mxGeometry y="106" width="160" height="30" as="geometry"/></mxCell><mxCell id="QZWZNDZkbE295jT6XIFR-48" value="&lt;div style=&quot;text-align: center&quot;&gt;&lt;span&gt;&lt;font face=&quot;helvetica&quot;&gt;&lt;span style=&quot;white-space: pre&quot;&gt;&#9;&lt;/span&gt;{phone_numbers}&lt;/font&gt;&lt;/span&gt;&lt;/div&gt;" style="text;whiteSpace=wrap;html=1;" parent="hoCRfOwyR8ru-IddkG8W-45" vertex="1"><mxGeometry y="136" width="160" height="30" as="geometry"/></mxCell><mxCell id="QZWZNDZkbE295jT6XIFR-47" value="&lt;span style=&quot;color: rgb(0 , 0 , 0) ; font-family: &amp;#34;helvetica&amp;#34; ; font-size: 12px ; font-style: normal ; font-weight: 400 ; letter-spacing: normal ; text-align: center ; text-indent: 0px ; text-transform: none ; word-spacing: 0px ; background-color: rgb(248 , 249 , 250) ; display: inline ; float: none&quot;&gt;&lt;span style=&quot;white-space: pre&quot;&gt;&#9;&lt;/span&gt;address&lt;/span&gt;" style="text;whiteSpace=wrap;html=1;" parent="hoCRfOwyR8ru-IddkG8W-45" vertex="1"><mxGeometry y="166" width="160" height="30" as="geometry"/></mxCell><mxCell id="QZWZNDZkbE295jT6XIFR-46" value="&lt;span style=&quot;white-space: pre&quot;&gt;&lt;span style=&quot;white-space: pre&quot;&gt;&#9;&lt;/span&gt;&#9;&lt;/span&gt;house_number" style="text;html=1;resizable=0;autosize=1;align=left;verticalAlign=middle;points=[];fillColor=none;strokeColor=none;rounded=0;" parent="hoCRfOwyR8ru-IddkG8W-45" vertex="1"><mxGeometry y="196" width="160" height="20" as="geometry"/></mxCell><mxCell id="QZWZNDZkbE295jT6XIFR-45" value="&lt;span style=&quot;white-space: pre&quot;&gt;&lt;span style=&quot;white-space: pre&quot;&gt;&#9;&lt;/span&gt;&#9;&lt;/span&gt;street" style="text;html=1;resizable=0;autosize=1;align=left;verticalAlign=middle;points=[];fillColor=none;strokeColor=none;rounded=0;" parent="hoCRfOwyR8ru-IddkG8W-45" vertex="1"><mxGeometry y="216" width="160" height="20" as="geometry"/></mxCell><mxCell id="QZWZNDZkbE295jT6XIFR-44" value="&lt;span style=&quot;white-space: pre&quot;&gt;&lt;span style=&quot;white-space: pre&quot;&gt;&#9;&lt;/span&gt;&#9;&lt;/span&gt;city" style="text;html=1;resizable=0;autosize=1;align=left;verticalAlign=middle;points=[];fillColor=none;strokeColor=none;rounded=0;" parent="hoCRfOwyR8ru-IddkG8W-45" vertex="1"><mxGeometry y="236" width="160" height="20" as="geometry"/></mxCell><mxCell id="QZWZNDZkbE295jT6XIFR-43" value="&lt;span style=&quot;white-space: pre&quot;&gt;&lt;span style=&quot;white-space: pre&quot;&gt;&#9;&lt;/span&gt;&#9;&lt;/span&gt;province" style="text;html=1;resizable=0;autosize=1;align=left;verticalAlign=middle;points=[];fillColor=none;strokeColor=none;rounded=0;" parent="hoCRfOwyR8ru-IddkG8W-45" vertex="1"><mxGeometry y="256" width="160" height="20" as="geometry"/></mxCell><mxCell id="QZWZNDZkbE295jT6XIFR-90" value="" style="edgeStyle=orthogonalEdgeStyle;fontSize=12;html=1;endArrow=ERzeroToMany;startArrow=ERmandOne;rounded=0;exitX=1;exitY=0.75;exitDx=0;exitDy=0;" parent="1" source="hoCRfOwyR8ru-IddkG8W-80" target="QZWZNDZkbE295jT6XIFR-48" edge="1"><mxGeometry width="100" height="100" relative="1" as="geometry"><mxPoint x="590" y="590" as="sourcePoint"/><mxPoint x="690" y="490" as="targetPoint"/><Array as="points"><mxPoint x="210" y="379"/><mxPoint x="210" y="951"/></Array></mxGeometry></mxCell><mxCell id="m-NtswQ1vV4Le2KyXVMU-27" value="has" style="edgeLabel;html=1;align=center;verticalAlign=middle;resizable=0;points=[];" parent="QZWZNDZkbE295jT6XIFR-90" vertex="1" connectable="0"><mxGeometry x="0.2123" y="-6" relative="1" as="geometry"><mxPoint as="offset"/></mxGeometry></mxCell><mxCell id="QZWZNDZkbE295jT6XIFR-91" value="" style="edgeStyle=orthogonalEdgeStyle;fontSize=12;html=1;endArrow=ERzeroToMany;startArrow=ERmandOne;rounded=0;exitX=1.002;exitY=0.017;exitDx=0;exitDy=0;exitPerimeter=0;fontStyle=1;entryX=-0.019;entryY=0.267;entryDx=0;entryDy=0;entryPerimeter=0;" parent="1" source="m-NtswQ1vV4Le2KyXVMU-13" target="hoCRfOwyR8ru-IddkG8W-145" edge="1"><mxGeometry width="100" height="100" relative="1" as="geometry"><mxPoint x="160.95999999999992" y="380" as="sourcePoint"/><mxPoint x="480" y="438" as="targetPoint"/><Array as="points"><mxPoint x="300" y="336"/><mxPoint x="300" y="280"/><mxPoint x="910" y="280"/><mxPoint x="910" y="261"/></Array></mxGeometry></mxCell><mxCell id="cwzBD0Sbq_DCRRP-pXD1-24" value="has" style="edgeLabel;html=1;align=center;verticalAlign=middle;resizable=0;points=[];" parent="QZWZNDZkbE295jT6XIFR-91" vertex="1" connectable="0"><mxGeometry x="-0.0282" y="1" relative="1" as="geometry"><mxPoint as="offset"/></mxGeometry></mxCell><mxCell id="QZWZNDZkbE295jT6XIFR-92" value="" style="fontSize=12;html=1;endArrow=ERmandOne;startArrow=ERmandOne;rounded=0;exitX=0.981;exitY=1.256;exitDx=0;exitDy=0;exitPerimeter=0;edgeStyle=orthogonalEdgeStyle;" parent="1" source="hoCRfOwyR8ru-IddkG8W-149" target="hoCRfOwyR8ru-IddkG8W-31" edge="1"><mxGeometry width="100" height="100" relative="1" as="geometry"><mxPoint x="590" y="700" as="sourcePoint"/><mxPoint x="690" y="600" as="targetPoint"/><Array as="points"><mxPoint x="1127" y="410"/><mxPoint x="940" y="410"/></Array></mxGeometry></mxCell><mxCell id="cwzBD0Sbq_DCRRP-pXD1-26" value="follows" style="edgeLabel;html=1;align=center;verticalAlign=middle;resizable=0;points=[];" parent="QZWZNDZkbE295jT6XIFR-92" vertex="1" connectable="0"><mxGeometry x="-0.0078" y="-2" relative="1" as="geometry"><mxPoint as="offset"/></mxGeometry></mxCell><mxCell id="QZWZNDZkbE295jT6XIFR-94" value="" style="edgeStyle=entityRelationEdgeStyle;fontSize=12;html=1;endArrow=ERzeroToMany;startArrow=ERmandOne;rounded=0;exitX=0.994;exitY=0.35;exitDx=0;exitDy=0;exitPerimeter=0;entryX=0;entryY=0;entryDx=0;entryDy=0;" parent="1" source="QZWZNDZkbE295jT6XIFR-44" target="QZWZNDZkbE295jT6XIFR-71" edge="1"><mxGeometry width="100" height="100" relative="1" as="geometry"><mxPoint x="1173.96" y="562.1199999999999" as="sourcePoint"/><mxPoint x="932.04" y="916.0000000000009" as="targetPoint"/></mxGeometry></mxCell><mxCell id="m-NtswQ1vV4Le2KyXVMU-4" value="has" style="edgeLabel;html=1;align=center;verticalAlign=middle;resizable=0;points=[];" parent="QZWZNDZkbE295jT6XIFR-94" vertex="1" connectable="0"><mxGeometry x="0.145" relative="1" as="geometry"><mxPoint as="offset"/></mxGeometry></mxCell><mxCell id="QZWZNDZkbE295jT6XIFR-96" value="" style="fontSize=12;html=1;endArrow=ERmandOne;startArrow=ERmandOne;rounded=0;exitX=0.5;exitY=0;exitDx=0;exitDy=0;entryX=0.905;entryY=1.089;entryDx=0;entryDy=0;entryPerimeter=0;" parent="1" source="hoCRfOwyR8ru-IddkG8W-45" target="QZWZNDZkbE295jT6XIFR-4" edge="1"><mxGeometry width="100" height="100" relative="1" as="geometry"><mxPoint x="1242.04" y="570" as="sourcePoint"/><mxPoint x="822.04" y="490" as="targetPoint"/></mxGeometry></mxCell><mxCell id="cwzBD0Sbq_DCRRP-pXD1-38" value="Invoice_Fee_Charge" style="edgeLabel;html=1;align=center;verticalAlign=middle;resizable=0;points=[];" parent="QZWZNDZkbE295jT6XIFR-96" vertex="1" connectable="0"><mxGeometry x="-0.0306" relative="1" as="geometry"><mxPoint as="offset"/></mxGeometry></mxCell><mxCell id="cwzBD0Sbq_DCRRP-pXD1-2" value="" style="endArrow=ERmandOne;html=1;rounded=0;exitX=0.5;exitY=0;exitDx=0;exitDy=0;startArrow=ERzeroToMany;startFill=0;endFill=0;edgeStyle=orthogonalEdgeStyle;" parent="1" source="hoCRfOwyR8ru-IddkG8W-37" target="hoCRfOwyR8ru-IddkG8W-149" edge="1"><mxGeometry width="50" height="50" relative="1" as="geometry"><mxPoint x="470" y="650" as="sourcePoint"/><mxPoint x="520" y="600" as="targetPoint"/></mxGeometry></mxCell><mxCell id="cwzBD0Sbq_DCRRP-pXD1-25" value="Results in" style="edgeLabel;html=1;align=center;verticalAlign=middle;resizable=0;points=[];" parent="cwzBD0Sbq_DCRRP-pXD1-2" vertex="1" connectable="0"><mxGeometry x="0.1954" relative="1" as="geometry"><mxPoint as="offset"/></mxGeometry></mxCell><mxCell id="cwzBD0Sbq_DCRRP-pXD1-29" value="" style="edgeStyle=entityRelationEdgeStyle;fontSize=12;html=1;endArrow=ERzeroToMany;startArrow=ERmandOne;rounded=0;exitX=1;exitY=0.224;exitDx=0;exitDy=0;exitPerimeter=0;entryX=-0.002;entryY=0.552;entryDx=0;entryDy=0;entryPerimeter=0;endFill=0;" parent="1" source="QZWZNDZkbE295jT6XIFR-31" target="QZWZNDZkbE295jT6XIFR-29" edge="1"><mxGeometry width="100" height="100" relative="1" as="geometry"><mxPoint x="712.0400000000002" y="710" as="sourcePoint"/><mxPoint x="972.04" y="800" as="targetPoint"/></mxGeometry></mxCell><mxCell id="cwzBD0Sbq_DCRRP-pXD1-31" value="Procedure-Invoice" style="edgeLabel;html=1;align=center;verticalAlign=middle;resizable=0;points=[];" parent="cwzBD0Sbq_DCRRP-pXD1-29" vertex="1" connectable="0"><mxGeometry x="-0.0398" y="-2" relative="1" as="geometry"><mxPoint as="offset"/></mxGeometry></mxCell><mxCell id="cwzBD0Sbq_DCRRP-pXD1-32" value="Patient_Records" style="swimlane;fontStyle=0;childLayout=stackLayout;horizontal=1;startSize=26;horizontalStack=0;resizeParent=1;resizeParentMax=0;resizeLast=0;collapsible=1;marginBottom=0;align=center;fontSize=14;" parent="1" vertex="1"><mxGeometry x="240" y="1190" width="160" height="106" as="geometry"/></mxCell><mxCell id="cwzBD0Sbq_DCRRP-pXD1-34" value="&lt;u&gt;record_id&lt;/u&gt;" style="text;html=1;resizable=0;autosize=1;align=left;verticalAlign=middle;points=[];fillColor=none;strokeColor=none;rounded=0;" parent="cwzBD0Sbq_DCRRP-pXD1-32" vertex="1"><mxGeometry y="26" width="160" height="20" as="geometry"/></mxCell><mxCell id="cwzBD0Sbq_DCRRP-pXD1-35" value="patient_id" style="text;html=1;resizable=0;autosize=1;align=left;verticalAlign=middle;points=[];fillColor=none;strokeColor=none;rounded=0;" parent="cwzBD0Sbq_DCRRP-pXD1-32" vertex="1"><mxGeometry y="46" width="160" height="20" as="geometry"/></mxCell><mxCell id="cwzBD0Sbq_DCRRP-pXD1-36" value="employee_id" style="text;html=1;resizable=0;autosize=1;align=left;verticalAlign=middle;points=[];fillColor=none;strokeColor=none;rounded=0;" parent="cwzBD0Sbq_DCRRP-pXD1-32" vertex="1"><mxGeometry y="66" width="160" height="20" as="geometry"/></mxCell><mxCell id="2" value="employee notes" style="text;html=1;resizable=0;autosize=1;align=left;verticalAlign=middle;points=[];fillColor=none;strokeColor=none;rounded=0;" parent="cwzBD0Sbq_DCRRP-pXD1-32" vertex="1"><mxGeometry y="86" width="160" height="20" as="geometry"/></mxCell><mxCell id="cwzBD0Sbq_DCRRP-pXD1-39" value="" style="edgeStyle=orthogonalEdgeStyle;fontSize=12;html=1;endArrow=ERzeroToMany;startArrow=ERmandOne;rounded=0;entryX=-0.003;entryY=0.917;entryDx=0;entryDy=0;entryPerimeter=0;exitX=0.75;exitY=1;exitDx=0;exitDy=0;" parent="1" source="hoCRfOwyR8ru-IddkG8W-80" target="cwzBD0Sbq_DCRRP-pXD1-35" edge="1"><mxGeometry width="100" height="100" relative="1" as="geometry"><mxPoint x="160.0000000000001" y="718.5" as="sourcePoint"/><mxPoint x="120" y="830" as="targetPoint"/></mxGeometry></mxCell><mxCell id="m-NtswQ1vV4Le2KyXVMU-26" value="assigned" style="edgeLabel;html=1;align=center;verticalAlign=middle;resizable=0;points=[];" parent="cwzBD0Sbq_DCRRP-pXD1-39" vertex="1" connectable="0"><mxGeometry x="0.377" y="-3" relative="1" as="geometry"><mxPoint y="1" as="offset"/></mxGeometry></mxCell><mxCell id="cwzBD0Sbq_DCRRP-pXD1-47" value="" style="edgeStyle=orthogonalEdgeStyle;fontSize=12;html=1;endArrow=ERzeroToMany;startArrow=ERmandOne;rounded=0;exitX=0;exitY=0.5;exitDx=0;exitDy=0;" parent="1" source="hoCRfOwyR8ru-IddkG8W-70" edge="1"><mxGeometry width="100" height="100" relative="1" as="geometry"><mxPoint x="970" y="610" as="sourcePoint"/><mxPoint x="400" y="1246" as="targetPoint"/><Array as="points"><mxPoint x="1500" y="1246"/></Array></mxGeometry></mxCell><mxCell id="cwzBD0Sbq_DCRRP-pXD1-49" value="Writes" style="edgeLabel;html=1;align=center;verticalAlign=middle;resizable=0;points=[];" parent="cwzBD0Sbq_DCRRP-pXD1-47" vertex="1" connectable="0"><mxGeometry x="-0.0338" y="1" relative="1" as="geometry"><mxPoint as="offset"/></mxGeometry></mxCell><mxCell id="cwzBD0Sbq_DCRRP-pXD1-51" value="" style="edgeStyle=entityRelationEdgeStyle;fontSize=12;html=1;endArrow=ERzeroToOne;startArrow=ERmandOne;rounded=0;exitX=1.011;exitY=0.867;exitDx=0;exitDy=0;exitPerimeter=0;fontStyle=1;entryX=-0.003;entryY=0.145;entryDx=0;entryDy=0;entryPerimeter=0;endFill=0;" parent="1" source="QZWZNDZkbE295jT6XIFR-23" target="QZWZNDZkbE295jT6XIFR-49" edge="1"><mxGeometry width="100" height="100" relative="1" as="geometry"><mxPoint x="880" y="494" as="sourcePoint"/><mxPoint x="1119.04" y="520.0000000000001" as="targetPoint"/></mxGeometry></mxCell><mxCell id="cwzBD0Sbq_DCRRP-pXD1-52" value="has" style="edgeLabel;html=1;align=center;verticalAlign=middle;resizable=0;points=[];" parent="cwzBD0Sbq_DCRRP-pXD1-51" vertex="1" connectable="0"><mxGeometry x="-0.0282" y="1" relative="1" as="geometry"><mxPoint as="offset"/></mxGeometry></mxCell><mxCell id="cwzBD0Sbq_DCRRP-pXD1-54" value="" style="edgeStyle=entityRelationEdgeStyle;fontSize=12;html=1;endArrow=ERzeroToMany;startArrow=ERmandOne;rounded=0;exitX=1;exitY=0.5;exitDx=0;exitDy=0;fontStyle=1;entryX=0.002;entryY=0.492;entryDx=0;entryDy=0;entryPerimeter=0;endFill=0;" parent="1" source="QZWZNDZkbE295jT6XIFR-71" target="QZWZNDZkbE295jT6XIFR-50" edge="1"><mxGeometry width="100" height="100" relative="1" as="geometry"><mxPoint x="890" y="780.0000000000002" as="sourcePoint"/><mxPoint x="967.54" y="953.3300000000002" as="targetPoint"/></mxGeometry></mxCell><mxCell id="cwzBD0Sbq_DCRRP-pXD1-55" value="has" style="edgeLabel;html=1;align=center;verticalAlign=middle;resizable=0;points=[];" parent="cwzBD0Sbq_DCRRP-pXD1-54" vertex="1" connectable="0"><mxGeometry x="-0.0282" y="1" relative="1" as="geometry"><mxPoint as="offset"/></mxGeometry></mxCell><mxCell id="cwzBD0Sbq_DCRRP-pXD1-56" value="" style="edgeStyle=entityRelationEdgeStyle;fontSize=12;html=1;endArrow=ERzeroToMany;startArrow=ERmandOne;rounded=0;exitX=1.013;exitY=0.036;exitDx=0;exitDy=0;exitPerimeter=0;entryX=-0.024;entryY=0.075;entryDx=0;entryDy=0;entryPerimeter=0;" parent="1" source="hoCRfOwyR8ru-IddkG8W-72" target="QZWZNDZkbE295jT6XIFR-57" edge="1"><mxGeometry width="100" height="100" relative="1" as="geometry"><mxPoint x="270" y="40" as="sourcePoint"/><mxPoint x="510" y="282.5" as="targetPoint"/></mxGeometry></mxCell><mxCell id="m-NtswQ1vV4Le2KyXVMU-22" value="writes" style="edgeLabel;html=1;align=center;verticalAlign=middle;resizable=0;points=[];" parent="cwzBD0Sbq_DCRRP-pXD1-56" vertex="1" connectable="0"><mxGeometry x="0.0799" y="4" relative="1" as="geometry"><mxPoint y="-1" as="offset"/></mxGeometry></mxCell><mxCell id="cwzBD0Sbq_DCRRP-pXD1-58" value="" style="edgeStyle=orthogonalEdgeStyle;fontSize=12;html=1;endArrow=ERzeroToMany;startArrow=ERmandOne;rounded=0;exitX=0;exitY=0.25;exitDx=0;exitDy=0;entryX=1.002;entryY=1.075;entryDx=0;entryDy=0;entryPerimeter=0;" parent="1" source="hoCRfOwyR8ru-IddkG8W-19" target="QZWZNDZkbE295jT6XIFR-56" edge="1"><mxGeometry width="100" height="100" relative="1" as="geometry"><mxPoint x="765.9200000000002" y="207.47600000000057" as="sourcePoint"/><mxPoint x="1240" y="-60" as="targetPoint"/></mxGeometry></mxCell><mxCell id="m-NtswQ1vV4Le2KyXVMU-23" value="given_to" style="edgeLabel;html=1;align=center;verticalAlign=middle;resizable=0;points=[];" parent="cwzBD0Sbq_DCRRP-pXD1-58" vertex="1" connectable="0"><mxGeometry x="0.004" y="2" relative="1" as="geometry"><mxPoint x="-1" as="offset"/></mxGeometry></mxCell><mxCell id="m-NtswQ1vV4Le2KyXVMU-9" value="" style="fontSize=12;html=1;endArrow=ERzeroToMany;startArrow=ERmandOne;rounded=0;exitX=0.468;exitY=1.057;exitDx=0;exitDy=0;exitPerimeter=0;entryX=0.5;entryY=0;entryDx=0;entryDy=0;edgeStyle=orthogonalEdgeStyle;" parent="1" source="QZWZNDZkbE295jT6XIFR-12" target="51" edge="1"><mxGeometry width="100" height="100" relative="1" as="geometry"><mxPoint x="960" y="530" as="sourcePoint"/><mxPoint x="1060" y="430" as="targetPoint"/></mxGeometry></mxCell><mxCell id="m-NtswQ1vV4Le2KyXVMU-24" value="workplace" style="edgeLabel;html=1;align=center;verticalAlign=middle;resizable=0;points=[];" parent="m-NtswQ1vV4Le2KyXVMU-9" vertex="1" connectable="0"><mxGeometry x="0.1669" relative="1" as="geometry"><mxPoint as="offset"/></mxGeometry></mxCell><mxCell id="m-NtswQ1vV4Le2KyXVMU-14" value="" style="edgeStyle=orthogonalEdgeStyle;fontSize=12;html=1;endArrow=ERzeroToMany;startArrow=ERmandOne;rounded=0;exitX=1;exitY=0;exitDx=0;exitDy=0;fontStyle=1;entryX=0.003;entryY=0.342;entryDx=0;entryDy=0;entryPerimeter=0;" parent="1" source="hoCRfOwyR8ru-IddkG8W-80" target="hoCRfOwyR8ru-IddkG8W-150" edge="1"><mxGeometry width="100" height="100" relative="1" as="geometry"><mxPoint x="160.0000000000001" y="458.5" as="sourcePoint"/><mxPoint x="370" y="356" as="targetPoint"/><Array as="points"><mxPoint x="320" y="356"/><mxPoint x="320" y="453"/></Array></mxGeometry></mxCell><mxCell id="m-NtswQ1vV4Le2KyXVMU-15" value="is_given" style="edgeLabel;html=1;align=center;verticalAlign=middle;resizable=0;points=[];" parent="m-NtswQ1vV4Le2KyXVMU-14" vertex="1" connectable="0"><mxGeometry x="-0.0282" y="1" relative="1" as="geometry"><mxPoint as="offset"/></mxGeometry></mxCell><mxCell id="m-NtswQ1vV4Le2KyXVMU-21" value="" style="fontSize=12;html=1;endArrow=ERzeroToMany;startArrow=ERmandOne;rounded=0;exitX=0;exitY=0.5;exitDx=0;exitDy=0;edgeStyle=orthogonalEdgeStyle;" parent="1" source="52" edge="1"><mxGeometry width="100" height="100" relative="1" as="geometry"><mxPoint x="1500" y="653.5" as="sourcePoint"/><mxPoint x="1130" y="260" as="targetPoint"/><Array as="points"><mxPoint x="1330" y="260"/></Array></mxGeometry></mxCell><mxCell id="m-NtswQ1vV4Le2KyXVMU-25" value="assigned" style="edgeLabel;html=1;align=center;verticalAlign=middle;resizable=0;points=[];" parent="m-NtswQ1vV4Le2KyXVMU-21" vertex="1" connectable="0"><mxGeometry x="-0.1602" y="1" relative="1" as="geometry"><mxPoint as="offset"/></mxGeometry></mxCell><mxCell id="3" value="" style="edgeStyle=entityRelationEdgeStyle;fontSize=12;html=1;endArrow=ERzeroToMany;startArrow=ERmandOne;rounded=0;fontStyle=1;exitX=0.996;exitY=0.135;exitDx=0;exitDy=0;exitPerimeter=0;entryX=0.001;entryY=0.985;entryDx=0;entryDy=0;entryPerimeter=0;" parent="1" source="cwzBD0Sbq_DCRRP-pXD1-32" edge="1" target="hoCRfOwyR8ru-IddkG8W-151"><mxGeometry width="100" height="100" relative="1" as="geometry"><mxPoint x="460" y="1120" as="sourcePoint"/><mxPoint x="480" y="460" as="targetPoint"/></mxGeometry></mxCell><mxCell id="4" value="is_given" style="edgeLabel;html=1;align=center;verticalAlign=middle;resizable=0;points=[];" parent="3" vertex="1" connectable="0"><mxGeometry x="-0.0282" y="1" relative="1" as="geometry"><mxPoint x="-8" y="-193" as="offset"/></mxGeometry></mxCell><mxCell id="hoCRfOwyR8ru-IddkG8W-96" value="age()" style="text;html=1;resizable=0;autosize=1;align=left;verticalAlign=middle;points=[];fillColor=none;strokeColor=none;rounded=0;" parent="1" vertex="1"><mxGeometry x="130" y="676" width="160" height="20" as="geometry"/></mxCell><mxCell id="40" style="edgeStyle=orthogonalEdgeStyle;rounded=0;orthogonalLoop=1;jettySize=auto;html=1;exitX=1.013;exitY=0.7;exitDx=0;exitDy=0;entryX=0.75;entryY=1;entryDx=0;entryDy=0;startArrow=ERone;startFill=0;endArrow=ERzeroToOne;endFill=0;exitPerimeter=0;" edge="1" parent="1" source="24" target="hoCRfOwyR8ru-IddkG8W-70"><mxGeometry relative="1" as="geometry"><Array as="points"><mxPoint x="1620" y="1360"/></Array></mxGeometry></mxCell><mxCell id="73" value="works as" style="edgeLabel;html=1;align=center;verticalAlign=middle;resizable=0;points=[];" vertex="1" connectable="0" parent="40"><mxGeometry x="-0.5816" y="3" relative="1" as="geometry"><mxPoint as="offset"/></mxGeometry></mxCell><mxCell id="7" value="Person" style="swimlane;fontStyle=0;childLayout=stackLayout;horizontal=1;startSize=26;horizontalStack=0;resizeParent=1;resizeParentMax=0;resizeLast=0;collapsible=1;marginBottom=0;align=center;fontSize=14;" vertex="1" parent="1"><mxGeometry x="850" y="1250" width="160" height="356" as="geometry"/></mxCell><mxCell id="8" value="person_id" style="text;strokeColor=none;fillColor=none;spacingLeft=4;spacingRight=4;overflow=hidden;rotatable=0;points=[[0,0.5],[1,0.5]];portConstraint=eastwest;fontSize=12;" vertex="1" parent="7"><mxGeometry y="26" width="160" height="30" as="geometry"/></mxCell><mxCell id="22" value="SSN" style="text;html=1;resizable=0;autosize=1;align=left;verticalAlign=middle;points=[];fillColor=none;strokeColor=none;rounded=0;" vertex="1" parent="7"><mxGeometry y="56" width="160" height="20" as="geometry"/></mxCell><mxCell id="23" value="b_date" style="text;html=1;resizable=0;autosize=1;align=left;verticalAlign=middle;points=[];fillColor=none;strokeColor=none;rounded=0;" vertex="1" parent="7"><mxGeometry y="76" width="160" height="20" as="geometry"/></mxCell><mxCell id="24" value="name" style="text;html=1;resizable=0;autosize=1;align=left;verticalAlign=middle;points=[];fillColor=none;strokeColor=none;rounded=0;" vertex="1" parent="7"><mxGeometry y="96" width="160" height="20" as="geometry"/></mxCell><mxCell id="25" value="&lt;span style=&quot;white-space: pre&quot;&gt;&#9;&lt;/span&gt;f_name" style="text;html=1;resizable=0;autosize=1;align=left;verticalAlign=middle;points=[];fillColor=none;strokeColor=none;rounded=0;" vertex="1" parent="7"><mxGeometry y="116" width="160" height="20" as="geometry"/></mxCell><mxCell id="33" value="&lt;span style=&quot;white-space: pre&quot;&gt;&#9;&lt;/span&gt;l_name" style="text;html=1;resizable=0;autosize=1;align=left;verticalAlign=middle;points=[];fillColor=none;strokeColor=none;rounded=0;" vertex="1" parent="7"><mxGeometry y="136" width="160" height="20" as="geometry"/></mxCell><mxCell id="35" value="address" style="text;html=1;resizable=0;autosize=1;align=left;verticalAlign=middle;points=[];fillColor=none;strokeColor=none;rounded=0;" vertex="1" parent="7"><mxGeometry y="156" width="160" height="20" as="geometry"/></mxCell><mxCell id="32" value="&lt;span style=&quot;white-space: pre&quot;&gt;&#9;&lt;/span&gt;city" style="text;html=1;resizable=0;autosize=1;align=left;verticalAlign=middle;points=[];fillColor=none;strokeColor=none;rounded=0;" vertex="1" parent="7"><mxGeometry y="176" width="160" height="20" as="geometry"/></mxCell><mxCell id="31" value="&lt;span style=&quot;white-space: pre&quot;&gt;&#9;&lt;/span&gt;house_number" style="text;html=1;resizable=0;autosize=1;align=left;verticalAlign=middle;points=[];fillColor=none;strokeColor=none;rounded=0;" vertex="1" parent="7"><mxGeometry y="196" width="160" height="20" as="geometry"/></mxCell><mxCell id="30" value="&lt;span style=&quot;white-space: pre&quot;&gt;&#9;&lt;/span&gt;street" style="text;html=1;resizable=0;autosize=1;align=left;verticalAlign=middle;points=[];fillColor=none;strokeColor=none;rounded=0;" vertex="1" parent="7"><mxGeometry y="216" width="160" height="20" as="geometry"/></mxCell><mxCell id="34" value="&lt;span style=&quot;white-space: pre&quot;&gt;&#9;&lt;/span&gt;street" style="text;html=1;resizable=0;autosize=1;align=left;verticalAlign=middle;points=[];fillColor=none;strokeColor=none;rounded=0;" vertex="1" parent="7"><mxGeometry y="236" width="160" height="20" as="geometry"/></mxCell><mxCell id="29" value="&lt;span style=&quot;white-space: pre&quot;&gt;&#9;&lt;/span&gt;province" style="text;html=1;resizable=0;autosize=1;align=left;verticalAlign=middle;points=[];fillColor=none;strokeColor=none;rounded=0;" vertex="1" parent="7"><mxGeometry y="256" width="160" height="20" as="geometry"/></mxCell><mxCell id="36" value="email" style="text;html=1;resizable=0;autosize=1;align=left;verticalAlign=middle;points=[];fillColor=none;strokeColor=none;rounded=0;" vertex="1" parent="7"><mxGeometry y="276" width="160" height="20" as="geometry"/></mxCell><mxCell id="37" value="gender" style="text;html=1;resizable=0;autosize=1;align=left;verticalAlign=middle;points=[];fillColor=none;strokeColor=none;rounded=0;" vertex="1" parent="7"><mxGeometry y="296" width="160" height="20" as="geometry"/></mxCell><mxCell id="38" value="phone-number" style="text;html=1;resizable=0;autosize=1;align=left;verticalAlign=middle;points=[];fillColor=none;strokeColor=none;rounded=0;" vertex="1" parent="7"><mxGeometry y="316" width="160" height="20" as="geometry"/></mxCell><mxCell id="39" value="phone-number" style="text;html=1;resizable=0;autosize=1;align=left;verticalAlign=middle;points=[];fillColor=none;strokeColor=none;rounded=0;" vertex="1" parent="7"><mxGeometry y="336" width="160" height="20" as="geometry"/></mxCell><mxCell id="44" value="" style="edgeStyle=entityRelationEdgeStyle;fontSize=12;html=1;endArrow=ERzeroToMany;startArrow=ERzeroToOne;rounded=0;entryX=0.998;entryY=0.35;entryDx=0;entryDy=0;entryPerimeter=0;exitX=0.998;exitY=0.2;exitDx=0;exitDy=0;exitPerimeter=0;" edge="1" parent="7" source="38" target="30"><mxGeometry width="100" height="100" relative="1" as="geometry"><mxPoint x="200" y="330" as="sourcePoint"/><mxPoint x="300" y="230" as="targetPoint"/></mxGeometry></mxCell><mxCell id="45" value="Caregiver" style="edgeLabel;html=1;align=center;verticalAlign=middle;resizable=0;points=[];" vertex="1" connectable="0" parent="44"><mxGeometry x="0.0282" relative="1" as="geometry"><mxPoint as="offset"/></mxGeometry></mxCell><mxCell id="41" style="edgeStyle=orthogonalEdgeStyle;rounded=0;orthogonalLoop=1;jettySize=auto;html=1;exitX=0;exitY=0.5;exitDx=0;exitDy=0;entryX=0.25;entryY=1;entryDx=0;entryDy=0;startArrow=ERone;startFill=0;endArrow=ERzeroToOne;endFill=0;" edge="1" parent="1" source="8" target="hoCRfOwyR8ru-IddkG8W-80"><mxGeometry relative="1" as="geometry"><mxPoint x="40" y="726" as="targetPoint"/><Array as="points"><mxPoint x="850" y="1350"/><mxPoint x="40" y="1350"/></Array></mxGeometry></mxCell><mxCell id="74" value="is a" style="edgeLabel;html=1;align=center;verticalAlign=middle;resizable=0;points=[];" vertex="1" connectable="0" parent="41"><mxGeometry x="-0.2033" y="-1" relative="1" as="geometry"><mxPoint as="offset"/></mxGeometry></mxCell><mxCell id="46" value="User" style="swimlane;fontStyle=0;childLayout=stackLayout;horizontal=1;startSize=26;horizontalStack=0;resizeParent=1;resizeParentMax=0;resizeLast=0;collapsible=1;marginBottom=0;align=center;fontSize=14;" vertex="1" parent="1"><mxGeometry x="1270" y="1426" width="160" height="86" as="geometry"/></mxCell><mxCell id="47" value="Username" style="text;strokeColor=none;fillColor=none;spacingLeft=4;spacingRight=4;overflow=hidden;rotatable=0;points=[[0,0.5],[1,0.5]];portConstraint=eastwest;fontSize=12;" vertex="1" parent="46"><mxGeometry y="26" width="160" height="30" as="geometry"/></mxCell><mxCell id="48" value="Password" style="text;strokeColor=none;fillColor=none;spacingLeft=4;spacingRight=4;overflow=hidden;rotatable=0;points=[[0,0.5],[1,0.5]];portConstraint=eastwest;fontSize=12;" vertex="1" parent="46"><mxGeometry y="56" width="160" height="30" as="geometry"/></mxCell><mxCell id="50" style="edgeStyle=orthogonalEdgeStyle;rounded=0;orthogonalLoop=1;jettySize=auto;html=1;exitX=0;exitY=0.5;exitDx=0;exitDy=0;entryX=1;entryY=0.2;entryDx=0;entryDy=0;entryPerimeter=0;startArrow=ERone;startFill=0;endArrow=ERzeroToOne;endFill=0;" edge="1" parent="1" source="47" target="33"><mxGeometry relative="1" as="geometry"/></mxCell><mxCell id="72" value="is a" style="edgeLabel;html=1;align=center;verticalAlign=middle;resizable=0;points=[];" vertex="1" connectable="0" parent="50"><mxGeometry x="-0.0455" relative="1" as="geometry"><mxPoint as="offset"/></mxGeometry></mxCell><mxCell id="51" value="Dentist" style="swimlane;fontStyle=0;childLayout=stackLayout;horizontal=1;startSize=26;horizontalStack=0;resizeParent=1;resizeParentMax=0;resizeLast=0;collapsible=1;marginBottom=0;align=center;fontSize=14;" vertex="1" parent="1"><mxGeometry x="1340" y="220" width="160" height="56" as="geometry"/></mxCell><mxCell id="52" value="employee_id" style="text;strokeColor=none;fillColor=none;spacingLeft=4;spacingRight=4;overflow=hidden;rotatable=0;points=[[0,0.5],[1,0.5]];portConstraint=eastwest;fontSize=12;" vertex="1" parent="51"><mxGeometry y="26" width="160" height="30" as="geometry"/></mxCell><mxCell id="55" style="edgeStyle=orthogonalEdgeStyle;rounded=0;orthogonalLoop=1;jettySize=auto;html=1;exitX=1;exitY=0.5;exitDx=0;exitDy=0;entryX=0;entryY=0.5;entryDx=0;entryDy=0;startArrow=ERzeroToOne;startFill=0;endArrow=ERmandOne;endFill=0;" edge="1" parent="1" source="52" target="hoCRfOwyR8ru-IddkG8W-68"><mxGeometry relative="1" as="geometry"><mxPoint x="1500" y="291" as="sourcePoint"/></mxGeometry></mxCell><mxCell id="56" value="Receptionist" style="swimlane;fontStyle=0;childLayout=stackLayout;horizontal=1;startSize=26;horizontalStack=0;resizeParent=1;resizeParentMax=0;resizeLast=0;collapsible=1;marginBottom=0;align=center;fontSize=14;" vertex="1" parent="1"><mxGeometry x="1550" y="210" width="160" height="56" as="geometry"/></mxCell><mxCell id="57" value="employee_id" style="text;strokeColor=none;fillColor=none;spacingLeft=4;spacingRight=4;overflow=hidden;rotatable=0;points=[[0,0.5],[1,0.5]];portConstraint=eastwest;fontSize=12;" vertex="1" parent="56"><mxGeometry y="26" width="160" height="30" as="geometry"/></mxCell><mxCell id="61" style="edgeStyle=orthogonalEdgeStyle;rounded=0;orthogonalLoop=1;jettySize=auto;html=1;exitX=1;exitY=0.5;exitDx=0;exitDy=0;entryX=1;entryY=0.25;entryDx=0;entryDy=0;startArrow=ERzeroToOne;startFill=0;endArrow=ERmandOne;endFill=0;" edge="1" parent="1" source="57" target="hoCRfOwyR8ru-IddkG8W-68"><mxGeometry relative="1" as="geometry"><mxPoint x="1710" y="281" as="sourcePoint"/></mxGeometry></mxCell><mxCell id="62" value="" style="edgeStyle=orthogonalEdgeStyle;fontSize=12;html=1;endArrow=ERoneToMany;rounded=0;entryX=0.5;entryY=0;entryDx=0;entryDy=0;" edge="1" parent="1" target="56"><mxGeometry width="100" height="100" relative="1" as="geometry"><mxPoint x="1433" y="110" as="sourcePoint"/><mxPoint x="1650" y="-20" as="targetPoint"/></mxGeometry></mxCell><mxCell id="63" value="1..2" style="text;html=1;align=center;verticalAlign=middle;resizable=0;points=[];autosize=1;strokeColor=none;fillColor=none;" vertex="1" parent="1"><mxGeometry x="1630" y="190" width="40" height="20" as="geometry"/></mxCell><mxCell id="70" style="edgeStyle=orthogonalEdgeStyle;rounded=0;orthogonalLoop=1;jettySize=auto;html=1;exitX=0.5;exitY=0;exitDx=0;exitDy=0;entryX=1.006;entryY=0.3;entryDx=0;entryDy=0;entryPerimeter=0;startArrow=ERmandOne;startFill=0;endArrow=ERmandOne;endFill=0;" edge="1" parent="1" source="64" target="QZWZNDZkbE295jT6XIFR-11"><mxGeometry relative="1" as="geometry"/></mxCell><mxCell id="71" value="manages" style="edgeLabel;html=1;align=center;verticalAlign=middle;resizable=0;points=[];" vertex="1" connectable="0" parent="70"><mxGeometry x="-0.3549" y="-2" relative="1" as="geometry"><mxPoint as="offset"/></mxGeometry></mxCell><mxCell id="64" value="Manager" style="swimlane;fontStyle=0;childLayout=stackLayout;horizontal=1;startSize=26;horizontalStack=0;resizeParent=1;resizeParentMax=0;resizeLast=0;collapsible=1;marginBottom=0;align=center;fontSize=14;" vertex="1" parent="1"><mxGeometry x="1770" y="200" width="160" height="56" as="geometry"/></mxCell><mxCell id="65" value="employee_id" style="text;strokeColor=none;fillColor=none;spacingLeft=4;spacingRight=4;overflow=hidden;rotatable=0;points=[[0,0.5],[1,0.5]];portConstraint=eastwest;fontSize=12;" vertex="1" parent="64"><mxGeometry y="26" width="160" height="30" as="geometry"/></mxCell><mxCell id="69" style="edgeStyle=orthogonalEdgeStyle;rounded=0;orthogonalLoop=1;jettySize=auto;html=1;exitX=1;exitY=0.5;exitDx=0;exitDy=0;entryX=1;entryY=0.25;entryDx=0;entryDy=0;startArrow=ERzeroToOne;startFill=0;endArrow=ERmandOne;endFill=0;" edge="1" parent="1" source="65" target="hoCRfOwyR8ru-IddkG8W-67"><mxGeometry relative="1" as="geometry"><mxPoint x="1930" y="271" as="sourcePoint"/></mxGeometry></mxCell></root></mxGraphModel></diagram></mxfile>